<svg width="66" height="79" viewBox="0 0 66 79" fill="none" xmlns="http://www.w3.org/2000/svg">
<path d="M21.4814 77.1958H44.9862" stroke="#0071C9" stroke-width="2.6" stroke-linecap="round"/>
<path d="M26.3066 76.4578L28.1746 64.005H37.8255L39.8491 76.4578" stroke="#0071C9" stroke-width="2.6"/>
<circle cx="33.0004" cy="24.3491" r="22.0491" stroke="#0071C9" stroke-width="2.6"/>
<path d="M2.49805 58.9835H63.4211" stroke="#0071C9" stroke-width="2.6" stroke-linecap="round"/>
<rect x="1.3" y="20.9792" width="63.4" height="42.6972" rx="3.7" stroke="#0071C9" stroke-width="2.6"/>
<path d="M33.1558 47.309V1.38916" stroke="#0071C9" stroke-width="2.6"/>
<path d="M33.1559 2.04907C14.5545 10.4163 12.9978 35.5181 33.1559 46.5991" stroke="#0071C9" stroke-width="2.6"/>
<path d="M33.0912 2.04907C51.6926 10.4163 53.2492 35.5181 33.0912 46.5991" stroke="#0071C9" stroke-width="2.6"/>
<rect x="7.99336" y="15.2199" width="49.5462" height="18.1028" rx="3.7" fill="white" stroke="#0071C9" stroke-width="2.6"/>
<path d="M13.0752 20.7689L14.8653 27.2288L17.9785 24.5826L21.3252 27.2288L23.0375 20.7689" stroke="#0071C9" stroke-width="2.6" stroke-linejoin="round"/>
<path d="M28.1748 20.7689L29.9649 27.2288L33.0781 24.5826L36.4248 27.2288L38.1371 20.7689" stroke="#0071C9" stroke-width="2.6" stroke-linejoin="round"/>
<path d="M43.2734 20.7689L45.0635 27.2288L48.1767 24.5826L51.5234 27.2288L53.2357 20.7689" stroke="#0071C9" stroke-width="2.6" stroke-linejoin="round"/>
</svg>
