<svg width="99" height="77" viewBox="0 0 99 77" fill="none" xmlns="http://www.w3.org/2000/svg">
<path d="M18.0738 7.62849C18.1428 5.0894 15.3837 0.612548 8.5546 2.01577C1.7046 3.42329 1.31171 11.5039 2.55335 14.6444C3.93295 18.2526 8.96849 25.2284 18.0738 29.0771M2.55332 14.6444C3.93292 18.2526 8.96846 25.2284 18.0738 29.0771" stroke="#0071C9" stroke-width="3.5"/>
<path d="M19.0794 76.4986C18.9454 72.2119 21.3701 62.8348 32.1404 61.2273C35.1544 60.7774 39.0392 60.8254 40.9816 60.8254L45.6032 54.9982C45.0004 52.52 44.3976 46.1569 44.3976 42.9419C42.7901 42.3391 39.1732 41.7363 39.1732 39.124C39.1732 37.0343 39.1732 34.3685 39.1732 33.2968C39.0392 32.2921 39.8966 30.0818 42.7901 29.2781C42.7901 27.0275 42.3882 22.7141 42.3882 20.8386C42.3882 18.6953 43.7948 14.4086 49.421 14.4086C51.3501 14.0871 53.1719 12.9351 53.8417 12.3992L57.0567 10.3898C57.9274 9.65306 61.196 8.34026 67.3046 8.98326C69.7158 9.78702 74.3374 9.38515 73.7346 20.8386C72.9309 23.049 72.9309 24.6565 72.9309 25.6612C72.9309 26.4649 72.7299 29.8809 72.9309 29.2781" stroke="#0071C9" stroke-width="3.5"/>
<path d="M96.4948 76.6707C96.6288 72.384 94.2041 63.0069 83.4338 61.3994C80.4198 60.9496 76.535 60.9975 74.5926 60.9975L69.971 55.1703C70.5738 52.6921 71.1766 46.329 71.1766 43.114C72.7841 42.5112 76.401 41.9084 76.401 39.2962C76.401 37.2064 76.401 34.5406 76.401 33.4689C76.535 32.4642 75.6777 30.2539 72.7841 29.4502L72.9313 25.8621" stroke="#0071C9" stroke-width="3.4"/>
<path d="M45.604 54.7973C49.4888 61.2273 59.9912 70.0284 70.1185 54.5963" stroke="#0071C9" stroke-width="3.4"/>
<path fill-rule="evenodd" clip-rule="evenodd" d="M16.3266 7.67484C16.2783 5.85112 17.1806 3.59526 19.0667 2.00565C21.0313 0.349885 23.9377 -0.493307 27.7181 0.303403C31.8514 1.17447 34.0086 4.15816 34.9171 7.17579C35.7974 10.1002 35.5986 13.3009 34.8449 15.2645C33.3353 19.3041 28.0955 26.6408 18.772 30.6827L18.0641 30.9896L17.36 30.6739L15.4468 29.8161L14.7285 29.4057L13.7836 28.8657L13.3789 28.6344L14.7159 25.6526L18.0758 27.1592C26.0579 23.4531 30.4168 17.123 31.5687 14.0331L31.5721 14.024L31.5756 14.015C32.0295 12.8373 32.2424 10.433 31.5656 8.18471C30.9155 6.02502 29.5418 4.26463 26.9963 3.72818C24.1184 3.12166 22.3505 3.81529 21.3223 4.68191C20.2155 5.6147 19.8064 6.86681 19.8254 7.58217L16.3266 7.67484Z" fill="#0071C9"/>
</svg>
